<?xml version="1.0" encoding="UTF-8"?>
<svg width="49px" height="51px" viewBox="0 0 49 51" version="1.1" xmlns="http://www.w3.org/2000/svg" xmlns:xlink="http://www.w3.org/1999/xlink">
    <!-- Generator: Sketch 51.3 (57544) - http://www.bohemiancoding.com/sketch -->
    <title>Group 4</title>
    <desc>Created with Sketch.</desc>
    <defs>
        <polygon id="path-1" points="0 0.252119083 4.33983628 0.252119083 4.33983628 2.74981921 0 2.74981921"></polygon>
        <polygon id="path-3" points="0.0755983568 0.082888025 7.21852302 0.082888025 7.21852302 8.5721204 0.0755983568 8.5721204"></polygon>
    </defs>
    <g id="Page-1" stroke="none" stroke-width="1" fill="none" fill-rule="evenodd">
        <g id="1登录" transform="translate(-249.000000, -231.000000)">
            <g id="Group-8" transform="translate(249.000000, 231.000000)">
                <g id="Group-4">
                    <path d="M29.4705357,35.5507345 C7.11873655,38.744848 -2.41759702,36.6592038 0.861534974,29.293802 C5.78023297,18.2456992 34.6531678,28.2027286 34.6531678,29.293802 C34.6531678,30.0211842 32.9256237,32.1068284 29.4705357,35.5507345 Z" id="Path-12" fill="#000000" opacity="0.069140625"></path>
                    <g id="Group-27" opacity="0.9" transform="translate(32.815690, 25.604014) scale(-1, 1) translate(-32.815690, -25.604014) translate(17.315690, 0.104014)">
                        <path d="M12.1965211,41.0609598 C12.1965211,41.0609598 13.1786067,41.2082727 13.3750238,40.7663341 C13.571441,40.3243956 12.7366682,38.9003715 13.1295024,38.5566415 C13.5223367,38.2129116 16.1248635,36.2978446 18.5800775,36.543366 C21.0352915,36.7888874 28.6955593,35.2666548 29.0883935,29.6687668 C29.4812277,24.0708789 17.6962005,27.2135528 17.6962005,27.2135528 C17.6962005,27.2135528 14.9463608,27.5081785 14.455318,27.1153442 C13.9642752,26.72251 10.7233927,25.7404244 9.2502643,27.5081785 C7.7771359,29.2759326 9.2502643,34.088152 9.74130711,34.5791948 C9.74130711,34.5791948 3.65237636,43.025131 3.25954212,48.0337676 C3.65237636,49.4086874 4.33983628,48.3283933 4.33983628,48.3283933 L11.5090612,39.3914143 L12.1965211,41.0609598 Z" id="Fill-1" fill="#FC4F59"></path>
                        <path d="M10.3796627,45.3821365 C10.3796627,45.3821365 10.7233927,46.2660135 11.8527912,44.8910937 C12.9821896,43.5161738 14.0133795,42.5340882 14.0133795,42.5340882 C14.0133795,42.5340882 14.111588,41.2082727 13.3750238,40.7663341 C12.6384596,40.3243956 9.98682851,42.2394625 10.3796627,45.3821365" id="Fill-3" fill="#3F629E"></path>
                        <g id="Group-7" transform="translate(0.000000, 47.842889)">
                            <mask id="mask-2" fill="white">
                                <use xlink:href="#path-1"></use>
                            </mask>
                            <g id="Clip-6"></g>
                            <path d="M2.5720822,0.68192096 C2.5720822,0.68192096 0.362389588,0.5837124 0.0186596265,1.95863224 C-0.325070335,3.33355209 4.19252344,2.49877933 4.19252344,2.49877933 L4.33983628,0.485503839 C4.33983628,0.485503839 4.24162772,-0.152851803 2.5720822,0.68192096" id="Fill-5" fill="#3F629E" mask="url(#mask-2)"></path>
                        </g>
                        <path d="M17.6962005,27.2135528 C15.2665207,27.7670562 13.4469125,29.7803317 13.1361806,32.2524376 C12.9487987,33.7440292 12.9448703,35.7078076 13.3094205,38.2785149 L13.8334614,37.6892635 C13.8334614,37.6892635 13.4406272,32.844046 14.4879232,32.5168151 C15.5356122,32.1895841 17.9582209,31.7967499 18.6126828,32.5824184 C19.2675375,33.3680869 19.3983513,35.3974686 21.4281258,34.088152 C23.4579003,32.7788355 23.2614832,31.2074985 24.2435688,32.7132322 C24.6320819,33.3095546 25.2680805,33.9758014 25.9669326,34.5489466 C27.6313713,33.4670811 28.9328311,31.8894588 29.0883935,29.6687668 C29.1744242,28.4427311 28.6759175,27.6358496 27.845466,27.1235938 C26.7023183,26.8607877 25.475497,26.5916962 24.2946373,26.3387109 C21.1782832,26.2872497 17.6962005,27.2135528 17.6962005,27.2135528" id="Fill-8" fill="#CD1E34"></path>
                        <path d="M29.0883935,29.6687668 C29.4812277,24.0708789 17.6962005,27.2135528 17.6962005,27.2135528 C17.6962005,27.2135528 14.9463608,27.5081785 14.455318,27.1153442 C14.0668049,26.8046124 11.9576779,26.1297231 10.3635565,26.7358664 C11.7310125,27.1330218 13.140109,28.3048463 13.1361806,32.2524376 C13.1318594,36.3029515 12.7857725,27.4590742 28.876263,30.8645542 C28.9831139,30.4874334 29.0589309,30.0910636 29.0883935,29.6687668" id="Fill-10" fill="#CD1E34"></path>
                        <path d="M16.2556773,2.98868291 C16.2556773,2.98868291 16.5176978,3.70914091 16.2886754,4.33099751 C16.0592602,4.95285412 15.666426,6.06614636 16.0592602,6.26256348 C16.4520945,6.4589806 16.4520945,6.52419108 16.4520945,7.11344245 C16.4520945,7.70269381 16.8449287,8.09552805 17.4671781,8.25933993 C18.0890347,8.42315181 18.3510552,9.07761365 18.3836604,9.60165453 C18.4162657,10.1253026 21.3625225,9.8306769 21.3625225,9.8306769 L21.297312,8.55396561 L21.1008949,2.92347243 L16.2556773,2.98868291 Z" id="Fill-12" fill="#DE9F85"></path>
                        <path d="M28.5973507,24.267296 C28.5973507,24.267296 30.5615219,23.8744617 30.9543561,20.5353707 C31.3471904,17.1962796 24.963634,10.419889 23.5887141,10.419889 C22.2137943,10.419889 28.5973507,24.267296 28.5973507,24.267296" id="Fill-14" fill="#4880F2"></path>
                        <path d="M1.54089231,3.39797691 C1.88462227,3.44708119 2.5720822,3.20155979 3.11222928,3.25066407 C3.65237636,3.29976835 4.73267053,3.25066407 4.83087909,3.83991543 C4.92908765,4.42916679 4.87998337,5.75498236 4.87998337,5.75498236 L4.290732,6.19692088 C4.290732,6.19692088 3.01402072,5.06752243 2.96491644,4.57647963 C2.91581216,4.08543683 1.93372655,3.88901971 1.93372655,3.88901971 L1.54089231,3.39797691 Z" id="Fill-16" fill="#DE9F85"></path>
                        <g id="Group-20" transform="translate(16.106204, 0.309946)">
                            <mask id="mask-4" fill="white">
                                <use xlink:href="#path-3"></use>
                            </mask>
                            <g id="Clip-19"></g>
                            <path d="M0.182471505,1.46758944 C0.182471505,1.46758944 1.58999659,-0.201956084 3.58677304,0.12527484 C5.58394233,0.452898597 7.7771359,1.79482037 7.08967597,4.18482389 C6.40221605,6.57443458 5.38752521,7.62212351 5.58394233,8.21137487 C5.78035945,8.80062623 3.88139872,8.60420911 3.71797968,8.08016823 C3.5541678,7.55652019 3.9143968,5.46153518 3.09573024,4.77407525 C2.27745652,4.08661533 1.68820515,4.51205482 0.706119549,3.66078301 C-0.275966055,2.80990405 0.182471505,1.46758944 0.182471505,1.46758944" id="Fill-18" fill="#8C2122" mask="url(#mask-4)"></path>
                        </g>
                        <path d="M4.290732,6.19692088 C4.290732,6.19692088 4.83087909,5.41125239 5.22371333,5.85319092 C5.61654757,6.29512944 9.15205574,11.4019746 11.0671227,11.5492874 C12.9821896,11.6966003 15.4374036,11.8930174 16.8614277,10.419889 C18.2854519,8.94676057 18.7273904,9.24138625 18.7273904,9.24138625 C18.7273904,9.24138625 23.0976713,8.94676057 25.4546768,11.9912259 C27.8116822,15.0356913 30.2668962,24.8565474 29.0883935,29.6687668 C28.7937678,30.6508524 20.8388744,29.6687668 20.8388744,29.6687668 C20.8388744,29.6687668 16.910532,27.606387 16.8123235,25.6422158 C16.7141149,23.6780446 15.7320293,18.4729909 16.910532,17.1962796 C16.910532,17.1962796 12.2947297,18.3747824 8.2681787,14.5446485 C4.24162772,10.7145147 4.290732,6.19692088 4.290732,6.19692088" id="Fill-21" fill="#2B67EF"></path>
                        <path d="M21.0096002,17.3520384 C20.8827147,18.1663838 21.7088451,18.1663838 22.09068,18.8558079 C22.4721221,19.545232 24.1888077,20.0464885 22.1539263,21.926986 C20.1194378,23.8070907 18.2754739,25.5614884 21.3914351,27.6293678 C22.9227029,28.6464157 25.313885,29.4957233 27.3503377,30.0971526 C28.3072819,30.0672971 29.0053483,29.9470899 29.0882364,29.6689632 C30.2667391,24.8567438 27.8115251,15.0358877 25.4545196,11.9914224 C25.0035459,11.4084563 24.4783265,10.9488403 23.9244303,10.5850758 L23.870612,10.5838973 C23.870612,10.5838973 24.8880527,15.2837661 21.0096002,17.3520384" id="Fill-23" fill="#3747DF"></path>
                        <path d="M16.910532,17.1962796 C16.8213586,17.292524 16.7463273,17.4139098 16.680724,17.5514018 C22.377999,16.9468299 21.7475,13.6851272 21.7475,13.6851272 C19.782936,16.1403412 15.265735,12.8994587 15.265735,12.8994587 C5.54308757,17.1228196 4.31508773,6.5653994 4.31508773,6.5653994 L4.30840954,6.5815056 C4.39719008,7.7482233 4.94087267,11.379583 8.2681787,14.5446485 C12.2947297,18.3747824 16.910532,17.1962796 16.910532,17.1962796" id="Fill-25" fill="#4880F2"></path>
                    </g>
                </g>
            </g>
        </g>
    </g>
</svg>