<?xml version="1.0" encoding="UTF-8"?>
<svg width="375px" height="279px" viewBox="0 0 375 279" version="1.1" xmlns="http://www.w3.org/2000/svg" xmlns:xlink="http://www.w3.org/1999/xlink">
    <!-- Generator: Sketch 51.3 (57544) - http://www.bohemiancoding.com/sketch -->
    <title>Group 11</title>
    <desc>Created with Sketch.</desc>
    <defs>
        <linearGradient x1="0%" y1="0%" x2="100%" y2="100%" id="linearGradient-1">
            <stop stop-color="#FD2848" offset="0%"></stop>
            <stop stop-color="#FC7C6E" offset="81.683526%"></stop>
            <stop stop-color="#FC7C6E" offset="95.443461%"></stop>
        </linearGradient>
        <linearGradient x1="50%" y1="36.9829299%" x2="50%" y2="100%" id="linearGradient-2">
            <stop stop-color="#FFADA8" offset="0%"></stop>
            <stop stop-color="#FF655D" offset="100%"></stop>
        </linearGradient>
        <linearGradient x1="50%" y1="0%" x2="50%" y2="100%" id="linearGradient-3">
            <stop stop-color="#FFADA8" offset="0%"></stop>
            <stop stop-color="#FF5C54" offset="100%"></stop>
        </linearGradient>
        <filter x="-4.1%" y="-2.7%" width="116.2%" height="108.9%" filterUnits="objectBoundingBox" id="filter-4">
            <feOffset dx="2" dy="1" in="SourceAlpha" result="shadowOffsetOuter1"></feOffset>
            <feGaussianBlur stdDeviation="0.5" in="shadowOffsetOuter1" result="shadowBlurOuter1"></feGaussianBlur>
            <feColorMatrix values="0 0 0 0 0   0 0 0 0 0   0 0 0 0 0  0 0 0 0.2 0" type="matrix" in="shadowBlurOuter1" result="shadowMatrixOuter1"></feColorMatrix>
            <feMerge>
                <feMergeNode in="shadowMatrixOuter1"></feMergeNode>
                <feMergeNode in="SourceGraphic"></feMergeNode>
            </feMerge>
        </filter>
        <polygon id="path-5" points="0.185582956 0.192649578 7.68458518 0.192649578 7.68458518 5.79942549 0.185582956 5.79942549"></polygon>
        <polygon id="path-7" points="0 0.029953691 2.93231165 0.029953691 2.93231165 2.90131105 0 2.90131105"></polygon>
        <polygon id="path-9" points="0.17673298 0.408635662 3.77451092 0.408635662 3.77451092 2.10316133 0.17673298 2.10316133"></polygon>
        <polygon id="path-11" points="0.104003321 0.269262954 14.1382917 0.269262954 14.1382917 25.2053044 0.104003321 25.2053044"></polygon>
        <linearGradient x1="100%" y1="0%" x2="0%" y2="84.0903016%" id="linearGradient-13">
            <stop stop-color="#FF3610" offset="0%"></stop>
            <stop stop-color="#FFAD74" offset="71.484375%"></stop>
            <stop stop-color="#FFD680" offset="100%"></stop>
        </linearGradient>
    </defs>
    <g id="Page-1" stroke="none" stroke-width="1" fill="none" fill-rule="evenodd">
        <g id="1登录" transform="translate(0.000000, -64.000000)">
            <g id="Group-14" transform="translate(0.000000, 64.000000)">
                <g id="Group-11">
                    <rect id="Rectangle-2" fill="url(#linearGradient-1)" x="0" y="0" width="375" height="278.162362"></rect>
                    <path d="M21.8725811,203.602393 L241.015136,169.393256 L354.377456,203.608531 C354.483202,203.640447 354.543052,203.752044 354.511136,203.85779 C354.485651,203.942226 354.407865,204 354.319667,204 L21.9034284,204 C21.7929715,204 21.7034284,203.910457 21.7034284,203.8 C21.7034284,203.701453 21.7752133,203.617593 21.8725811,203.602393 Z" id="Path-2" fill="#FFA3AA"></path>
                    <g id="Group-3" transform="translate(51.000000, 73.000000)">
                        <polygon id="Path-16" fill="#ED979E" points="157.068514 111.139579 127.420568 106.161317 143.392648 103.532395"></polygon>
                        <path d="M115.963949,117.420938 C108.921257,120.812691 103.500517,122.246473 99.7017276,121.722284 C95.9029388,121.198095 90.4821985,118.268314 83.4395067,112.932941 L102.932341,109.867327 L115.963949,117.420938 Z" id="Path-18" fill="#ED979E"></path>
                        <polygon id="Path-19" fill="#ED979E" points="75.9157235 124.039731 41.2065888 119.079126 64.5501175 116.133295"></polygon>
                        <polygon id="Path-20" fill="#ED979E" points="35.0793876 129.961299 0.189773683 125.843222 21.4876222 122.376646"></polygon>
                        <g id="Group-13" transform="translate(20.000000, 0.000000)">
                            <polygon id="Fill-1" fill="url(#linearGradient-2)" points="109.285 114.561 95.838 117.957 95.838 31.469 109.285 28"></polygon>
                            <polygon id="Fill-2" fill="url(#linearGradient-3)" points="81.618 29.7 95.838 31.469 95.838 117.957 81 112.857"></polygon>
                            <polygon id="Fill-3" fill="#FFCBC8" points="109.285 28.0511102 94.794 26.1971102 81.618 29.7511102 95.838 31.5201102"></polygon>
                            <g id="Group-25" filter="url(#filter-4)" opacity="0.80234375" transform="translate(63.118000, 65.403921)">
                                <path d="M14.9203312,27.0527539 C14.9203312,27.0527539 15.4461216,31.995183 18.8111797,31.995183 C18.8111797,31.995183 25.1206637,51.3442672 26.6980347,52.7113221 C25.8567701,54.3938512 24.8051895,53.3422705 24.8051895,53.3422705 C24.8051895,53.3422705 14.1842248,38.9356154 14.9203312,27.0527539" id="Fill-1" fill="#6F7ABA"></path>
                                <path d="M28.0650895,28.840441 C28.0650895,28.840441 23.4381346,46.6121542 17.654441,53.4474286 C16.07707,54.078377 15.4461216,53.6577447 15.5512796,53.2371124 C15.6564377,52.8164802 20.5988668,46.4018381 18.8111797,31.995183 C17.0234926,17.5885279 28.0650895,28.840441 28.0650895,28.840441" id="Fill-3" fill="#5764AD"></path>
                                <path d="M20.1256555,5.49535024 L20.7566039,5.39019217 C20.7566039,5.39019217 20.3885507,4.12829537 21.0194991,4.39119054 C21.6504475,4.65408571 22.386554,4.39119054 22.386554,4.39119054 L25.4361379,2.44576631 C25.4361379,2.44576631 26.2248234,3.02413568 26.3299814,3.44476794 C26.4351395,3.86540021 25.9619282,4.70666474 25.9619282,4.96955991 L25.9619282,6.80982607 C25.9619282,6.80982607 25.1732427,8.70267127 24.5422943,9.0707245 C23.9113459,9.43877773 20.0204975,9.91198903 20.0204975,9.91198903 L19.7576023,6.75724704 L20.1256555,5.49535024 Z" id="Fill-5" fill="#DE9F85"></path>
                                <g id="Group-9" transform="translate(18.928452, 0.227983)">
                                    <mask id="mask-6" fill="white">
                                        <use xlink:href="#path-5"></use>
                                    </mask>
                                    <g id="Clip-8"></g>
                                    <path d="M6.54259839,2.82534487 C6.54259839,2.82534487 8.14604859,2.08124639 7.55295709,1.6551459 C6.96028623,1.22820415 6.25951288,1.37206039 6.25951288,1.37206039 L5.52761273,0.192607515 C5.52761273,0.192607515 4.84240277,0.179567914 4.1740181,0.538367237 C3.50563343,0.896325295 0.185582956,2.28567367 0.185582956,2.28567367 L0.891403898,4.4658107 L0.501057155,5.3196942 C0.367296095,5.61287489 0.6802465,5.90900001 0.965855809,5.75925492 L6.54259839,2.82534487 Z" id="Fill-7" fill="#1E2C59" mask="url(#mask-6)"></path>
                                </g>
                                <g id="Group-12" transform="translate(0.000000, 15.370744)">
                                    <mask id="mask-8" fill="white">
                                        <use xlink:href="#path-7"></use>
                                    </mask>
                                    <g id="Clip-11"></g>
                                    <path d="M2.61683745,2.90131105 C2.61683745,2.90131105 -0.380167442,1.37651909 0.040464824,0.377517459 C0.46109709,-0.621484173 2.93231165,0.850728758 2.93231165,0.850728758 L2.61683745,2.90131105 Z" id="Fill-10" fill="#DE9F85" mask="url(#mask-8)"></path>
                                </g>
                                <g id="Group-15" transform="translate(13.880865, 52.807016)">
                                    <mask id="mask-10" fill="white">
                                        <use xlink:href="#path-9"></use>
                                    </mask>
                                    <g id="Clip-14"></g>
                                    <path d="M3.77357618,0.640412625 C3.77357618,0.640412625 3.82615522,1.42909812 3.14262779,2.00746749 C2.82925675,2.27288645 0.198201924,1.90230942 0.198201924,1.90230942 C0.198201924,1.90230942 -0.117272276,0.535254558 1.67041485,0.430096492 C3.45810198,0.324938425 3.77357618,0.640412625 3.77357618,0.640412625" id="Fill-13" fill="#1F2A6D" mask="url(#mask-10)"></path>
                                </g>
                                <path d="M23.9164776,54.4990092 L27.2386313,54.6041673 C27.2386313,54.6041673 27.5646213,53.9206399 26.9782599,52.9742173 C26.3918985,52.0277947 23.5909083,53.7629028 23.9164776,54.4990092" id="Fill-16" fill="#1F2A6D"></path>
                                <path d="M19.7576023,6.75724704 C19.7576023,6.75724704 19.6524442,9.3861987 20.7040249,9.7016729 C21.7556056,10.0171471 22.9123443,5.9159825 25.3309798,7.59851157 C27.2099441,8.90541602 23.5672687,23.4782209 21.8481447,29.9155771 C21.2041567,32.3258 18.2673022,33.2882066 16.3572111,31.6830739 C15.5916603,31.0399271 14.8627046,30.1002346 14.2893828,28.7352829 C12.0810634,23.4773796 16.2873861,16.4317892 16.2873861,16.4317892 L19.7576023,6.75724704 Z" id="Fill-18" fill="#E9F0F7"></path>
                                <g id="Group-22" transform="translate(21.031613, 7.378731)">
                                    <mask id="mask-12" fill="white">
                                        <use xlink:href="#path-11"></use>
                                    </mask>
                                    <g id="Clip-21"></g>
                                    <path d="M5.03547298,0.430096492 C5.03547298,0.430096492 3.14262779,-0.726642239 2.30136325,3.16420622 C1.46009872,7.05505468 -2.851382,22.4081324 3.56326005,25.1422421 C5.35094718,25.7731905 7.03347625,21.4617098 7.03347625,21.4617098 C7.03347625,21.4617098 12.8171699,20.199813 13.9739086,16.0986484 C15.1306474,11.9974838 9.97790211,2.42809976 5.03547298,0.430096492" id="Fill-20" fill="#1F2A6D" mask="url(#mask-12)"></path>
                                </g>
                                <path d="M19.0214958,8.4397761 C19.0214958,8.4397761 13.6584344,24.108328 15.3409635,31.7848669 C15.3409635,31.7848669 11.8707473,28.6301249 14.2893828,20.6381118 C14.7100151,19.2710569 12.8171699,20.2174795 12.8171699,20.2174795 C12.8171699,20.2174795 10.0830602,21.6896925 2.93231165,18.7452666 C1.77557292,18.3246343 2.93231165,16.221473 2.93231165,16.221473 C2.93231165,16.221473 11.5552731,16.7472634 19.0214958,8.4397761" id="Fill-23" fill="#1F2A6D"></path>
                            </g>
                            <polygon id="Fill-4" fill="url(#linearGradient-2)" points="136.838 5.768 136.838 111.268 150.285 107.871 150.285 2.299"></polygon>
                            <polygon id="Fill-5" fill="url(#linearGradient-3)" points="122.618 4 136.838 5.769 136.838 111.268 122 106.167"></polygon>
                            <polygon id="Fill-6" fill="#FFCBC8" points="135.794 0.482281578 122.618 4.03728158 136.838 5.80628158 150.285 2.33728158"></polygon>
                            <polygon id="Fill-7" fill="url(#linearGradient-2)" points="69.285 120.921 55.838 124.317 55.838 57.769 69.285 54.3"></polygon>
                            <polygon id="Fill-8" fill="url(#linearGradient-3)" points="41.618 56 55.838 57.769 55.838 124.317 41 119.217"></polygon>
                            <polygon id="Fill-9" fill="#FFCBC8" points="69.285 54.2876573 54.795 52.4326573 41.618 55.9876573 55.838 57.7566573"></polygon>
                            <polygon id="Fill-10" fill="url(#linearGradient-2)" points="14.8383 80.6437 14.8383 130.4997 28.2853 127.1037 28.2853 77.1747"></polygon>
                            <polygon id="Fill-11" fill="url(#linearGradient-3)" points="0 125.3997 14.838 130.4997 14.838 80.6437 0.618 78.8747"></polygon>
                            <polygon id="Fill-12" fill="#FFCBC8" points="0.6183 78.8751 14.8383 80.6441 28.2853 77.1751 13.7953 75.3201"></polygon>
                        </g>
                    </g>
                    <g id="Group-5" transform="translate(243.000000, 64.000000)">
                        <polygon id="Fill-1-Copy" stroke="#FFFFFF" fill-opacity="0.5" fill="#FEFEFE" opacity="0.3" points="0.275595743 5.44574548 0.275595743 109.904453 87 136.003364 87 10.7261864"></polygon>
                        <polygon id="Fill-1" fill="#FEFEFE" opacity="0.183649554" points="14.1267739 0.0463959598 14.1267739 104.505103 100.851178 129.604014 100.851178 5.32683686"></polygon>
                        <path d="M68.9493997,9.63245448 L68.9493997,130.231566" id="Path-3" stroke="#FFFFFF" opacity="0.1"></path>
                        <path d="M49.2627854,8.53442765 L49.2627854,125.087615" id="Path-4" stroke="#FFFFFF" opacity="0.1"></path>
                        <path d="M31.4101841,7.78125385 L31.4101841,119.54968" id="Path-5" stroke="#FFFFFF" opacity="0.1"></path>
                        <path d="M14.2497161,6.24375308 L14.2497161,114.041066" id="Path-6" stroke="#FFFFFF" opacity="0.1"></path>
                        <path d="M0.299990219,23.2528195 L86.867331,32.7930209" id="Path-7" stroke="#FFFFFF" opacity="0.1"></path>
                        <path d="M0.98536005,44.5945763 L86.4678373,59.1046253" id="Path-8" stroke="#FFFFFF" opacity="0.1"></path>
                        <path d="M0.241348951,65.7823998 C0.241348951,65.7823998 28.8088096,72.5970039 85.943731,86.2262122" id="Path-9" stroke="#FFFFFF" opacity="0.1"></path>
                        <path d="M0.532722756,88.8522415 L86.7060675,112.611118" id="Path-10" stroke="#FFFFFF" opacity="0.1"></path>
                        <path d="M6.2322539,96.0263253 C7.90927502,83.5572706 12.4161154,77.3227432 19.752775,77.3227432 C30.7577645,77.3227432 37.7319497,103.820971 49.9896647,100.752721 C62.2473796,97.6844705 55.5186255,23.1410037 83.943731,41.1726325" id="Path-11-Copy" stroke-opacity="0.0734827899" stroke="#000000" stroke-width="6" stroke-linecap="round"></path>
                        <path d="M3.90976555,90.6358563 C5.58678667,78.1668016 10.0936271,71.9322743 17.4302867,71.9322743 C28.4352761,71.9322743 35.4094614,98.4305021 47.6671763,95.3622518 C59.9248913,92.2940015 53.1961372,17.7505347 81.6212426,35.7821635" id="Path-11" stroke="url(#linearGradient-13)" stroke-width="6" stroke-linecap="round"></path>
                    </g>
                </g>
            </g>
        </g>
    </g>
</svg>