<?xml version="1.0" encoding="UTF-8"?>
<svg width="39px" height="58px" viewBox="0 0 39 58" version="1.1" xmlns="http://www.w3.org/2000/svg" xmlns:xlink="http://www.w3.org/1999/xlink">
    <!-- Generator: Sketch 51.3 (57544) - http://www.bohemiancoding.com/sketch -->
    <title>Group 25</title>
    <desc>Created with Sketch.</desc>
    <defs>
        <polygon id="path-1" points="0.185582956 0.192649578 7.68458518 0.192649578 7.68458518 5.79942549 0.185582956 5.79942549"></polygon>
        <polygon id="path-3" points="0 0.029953691 2.93231165 0.029953691 2.93231165 2.90131105 0 2.90131105"></polygon>
        <polygon id="path-5" points="0.17673298 0.408635662 3.77451092 0.408635662 3.77451092 2.10316133 0.17673298 2.10316133"></polygon>
        <polygon id="path-7" points="0.104003321 0.269262954 14.1382917 0.269262954 14.1382917 25.2053044 0.104003321 25.2053044"></polygon>
    </defs>
    <g id="Page-1" stroke="none" stroke-width="1" fill="none" fill-rule="evenodd" opacity="0.80234375">
        <g id="1登录" transform="translate(-134.000000, -202.000000)">
            <g id="Group-10" transform="translate(20.000000, 202.000000)">
                <g id="Group-16" transform="translate(114.000000, 0.000000)">
                    <g id="Group-25" transform="translate(0.118000, 0.403921)">
                        <path d="M14.9203312,27.0527539 C14.9203312,27.0527539 15.4461216,31.995183 18.8111797,31.995183 C18.8111797,31.995183 25.1206637,51.3442672 26.6980347,52.7113221 C25.8567701,54.3938512 24.8051895,53.3422705 24.8051895,53.3422705 C24.8051895,53.3422705 14.1842248,38.9356154 14.9203312,27.0527539" id="Fill-1" fill="#6F7ABA"></path>
                        <path d="M28.0650895,28.840441 C28.0650895,28.840441 23.4381346,46.6121542 17.654441,53.4474286 C16.07707,54.078377 15.4461216,53.6577447 15.5512796,53.2371124 C15.6564377,52.8164802 20.5988668,46.4018381 18.8111797,31.995183 C17.0234926,17.5885279 28.0650895,28.840441 28.0650895,28.840441" id="Fill-3" fill="#5764AD"></path>
                        <path d="M20.1256555,5.49535024 L20.7566039,5.39019217 C20.7566039,5.39019217 20.3885507,4.12829537 21.0194991,4.39119054 C21.6504475,4.65408571 22.386554,4.39119054 22.386554,4.39119054 L25.4361379,2.44576631 C25.4361379,2.44576631 26.2248234,3.02413568 26.3299814,3.44476794 C26.4351395,3.86540021 25.9619282,4.70666474 25.9619282,4.96955991 L25.9619282,6.80982607 C25.9619282,6.80982607 25.1732427,8.70267127 24.5422943,9.0707245 C23.9113459,9.43877773 20.0204975,9.91198903 20.0204975,9.91198903 L19.7576023,6.75724704 L20.1256555,5.49535024 Z" id="Fill-5" fill="#DE9F85"></path>
                        <g id="Group-9" transform="translate(18.928452, 0.227983)">
                            <mask id="mask-2" fill="white">
                                <use xlink:href="#path-1"></use>
                            </mask>
                            <g id="Clip-8"></g>
                            <path d="M6.54259839,2.82534487 C6.54259839,2.82534487 8.14604859,2.08124639 7.55295709,1.6551459 C6.96028623,1.22820415 6.25951288,1.37206039 6.25951288,1.37206039 L5.52761273,0.192607515 C5.52761273,0.192607515 4.84240277,0.179567914 4.1740181,0.538367237 C3.50563343,0.896325295 0.185582956,2.28567367 0.185582956,2.28567367 L0.891403898,4.4658107 L0.501057155,5.3196942 C0.367296095,5.61287489 0.6802465,5.90900001 0.965855809,5.75925492 L6.54259839,2.82534487 Z" id="Fill-7" fill="#1E2C59" mask="url(#mask-2)"></path>
                        </g>
                        <g id="Group-12" transform="translate(0.000000, 15.370744)">
                            <mask id="mask-4" fill="white">
                                <use xlink:href="#path-3"></use>
                            </mask>
                            <g id="Clip-11"></g>
                            <path d="M2.61683745,2.90131105 C2.61683745,2.90131105 -0.380167442,1.37651909 0.040464824,0.377517459 C0.46109709,-0.621484173 2.93231165,0.850728758 2.93231165,0.850728758 L2.61683745,2.90131105 Z" id="Fill-10" fill="#DE9F85" mask="url(#mask-4)"></path>
                        </g>
                        <g id="Group-15" transform="translate(13.880865, 52.807016)">
                            <mask id="mask-6" fill="white">
                                <use xlink:href="#path-5"></use>
                            </mask>
                            <g id="Clip-14"></g>
                            <path d="M3.77357618,0.640412625 C3.77357618,0.640412625 3.82615522,1.42909812 3.14262779,2.00746749 C2.82925675,2.27288645 0.198201924,1.90230942 0.198201924,1.90230942 C0.198201924,1.90230942 -0.117272276,0.535254558 1.67041485,0.430096492 C3.45810198,0.324938425 3.77357618,0.640412625 3.77357618,0.640412625" id="Fill-13" fill="#1F2A6D" mask="url(#mask-6)"></path>
                        </g>
                        <path d="M23.9164776,54.4990092 L27.2386313,54.6041673 C27.2386313,54.6041673 27.5646213,53.9206399 26.9782599,52.9742173 C26.3918985,52.0277947 23.5909083,53.7629028 23.9164776,54.4990092" id="Fill-16" fill="#1F2A6D"></path>
                        <path d="M19.7576023,6.75724704 C19.7576023,6.75724704 19.6524442,9.3861987 20.7040249,9.7016729 C21.7556056,10.0171471 22.9123443,5.9159825 25.3309798,7.59851157 C27.2099441,8.90541602 23.5672687,23.4782209 21.8481447,29.9155771 C21.2041567,32.3258 18.2673022,33.2882066 16.3572111,31.6830739 C15.5916603,31.0399271 14.8627046,30.1002346 14.2893828,28.7352829 C12.0810634,23.4773796 16.2873861,16.4317892 16.2873861,16.4317892 L19.7576023,6.75724704 Z" id="Fill-18" fill="#E9F0F7"></path>
                        <g id="Group-22" transform="translate(21.031613, 7.378731)">
                            <mask id="mask-8" fill="white">
                                <use xlink:href="#path-7"></use>
                            </mask>
                            <g id="Clip-21"></g>
                            <path d="M5.03547298,0.430096492 C5.03547298,0.430096492 3.14262779,-0.726642239 2.30136325,3.16420622 C1.46009872,7.05505468 -2.851382,22.4081324 3.56326005,25.1422421 C5.35094718,25.7731905 7.03347625,21.4617098 7.03347625,21.4617098 C7.03347625,21.4617098 12.8171699,20.199813 13.9739086,16.0986484 C15.1306474,11.9974838 9.97790211,2.42809976 5.03547298,0.430096492" id="Fill-20" fill="#1F2A6D" mask="url(#mask-8)"></path>
                        </g>
                        <path d="M19.0214958,8.4397761 C19.0214958,8.4397761 13.6584344,24.108328 15.3409635,31.7848669 C15.3409635,31.7848669 11.8707473,28.6301249 14.2893828,20.6381118 C14.7100151,19.2710569 12.8171699,20.2174795 12.8171699,20.2174795 C12.8171699,20.2174795 10.0830602,21.6896925 2.93231165,18.7452666 C1.77557292,18.3246343 2.93231165,16.221473 2.93231165,16.221473 C2.93231165,16.221473 11.5552731,16.7472634 19.0214958,8.4397761" id="Fill-23" fill="#1F2A6D"></path>
                    </g>
                </g>
            </g>
        </g>
    </g>
</svg>