<?xml version="1.0" encoding="UTF-8"?>
<svg width="375px" height="279px" viewBox="0 0 375 279" version="1.1" xmlns="http://www.w3.org/2000/svg" xmlns:xlink="http://www.w3.org/1999/xlink">
    <!-- Generator: Sketch 51.3 (57544) - http://www.bohemiancoding.com/sketch -->
    <title>Group 11</title>
    <desc>Created with Sketch.</desc>
    <defs>
        <linearGradient x1="0%" y1="0%" x2="100%" y2="100%" id="linearGradient-1">
            <stop stop-color="#FD2848" offset="0%"></stop>
            <stop stop-color="#FC7C6E" offset="81.683526%"></stop>
            <stop stop-color="#FC7C6E" offset="95.443461%"></stop>
        </linearGradient>
        <linearGradient x1="50%" y1="36.9829299%" x2="50%" y2="100%" id="linearGradient-2">
            <stop stop-color="#FFADA8" offset="0%"></stop>
            <stop stop-color="#FF655D" offset="100%"></stop>
        </linearGradient>
        <linearGradient x1="50%" y1="0%" x2="50%" y2="100%" id="linearGradient-3">
            <stop stop-color="#FFADA8" offset="0%"></stop>
            <stop stop-color="#FF5C54" offset="100%"></stop>
        </linearGradient>
        <linearGradient x1="100%" y1="0%" x2="0%" y2="84.0903016%" id="linearGradient-4">
            <stop stop-color="#FF3610" offset="0%"></stop>
            <stop stop-color="#FFAD74" offset="71.484375%"></stop>
            <stop stop-color="#FFD680" offset="100%"></stop>
        </linearGradient>
    </defs>
    <g id="Page-1" stroke="none" stroke-width="1" fill="none" fill-rule="evenodd">
        <g id="1登录" transform="translate(0.000000, -64.000000)">
            <g id="Group-14" transform="translate(0.000000, 64.000000)">
                <g id="Group-17">
                    <g id="Group-11">
                        <rect id="Rectangle-2" fill="url(#linearGradient-1)" x="0" y="0" width="375" height="278.162362"></rect>
                        <path d="M21.8725811,203.602393 L241.015136,169.393256 L354.377456,203.608531 C354.483202,203.640447 354.543052,203.752044 354.511136,203.85779 C354.485651,203.942226 354.407865,204 354.319667,204 L21.9034284,204 C21.7929715,204 21.7034284,203.910457 21.7034284,203.8 C21.7034284,203.701453 21.7752133,203.617593 21.8725811,203.602393 Z" id="Path-2" fill="#FFA3AA"></path>
                        <g id="Group-3" transform="translate(51.000000, 73.000000)">
                            <polygon id="Path-16" fill="#ED979E" points="157.068514 111.139579 127.420568 106.161317 143.392648 103.532395"></polygon>
                            <path d="M115.963949,117.420938 C108.921257,120.812691 103.500517,122.246473 99.7017276,121.722284 C95.9029388,121.198095 90.4821985,118.268314 83.4395067,112.932941 L102.932341,109.867327 L115.963949,117.420938 Z" id="Path-18" fill="#ED979E"></path>
                            <polygon id="Path-19" fill="#ED979E" points="75.9157235 124.039731 41.2065888 119.079126 64.5501175 116.133295"></polygon>
                            <polygon id="Path-20" fill="#ED979E" points="35.0793876 129.961299 0.189773683 125.843222 21.4876222 122.376646"></polygon>
                            <g id="Group-13" transform="translate(20.000000, 0.000000)">
                                <polygon id="Fill-1" fill="url(#linearGradient-2)" points="109.285 114.561 95.838 117.957 95.838 31.469 109.285 28"></polygon>
                                <polygon id="Fill-2" fill="url(#linearGradient-3)" points="81.618 29.7 95.838 31.469 95.838 117.957 81 112.857"></polygon>
                                <polygon id="Fill-3" fill="#FFCBC8" points="109.285 28.0511102 94.794 26.1971102 81.618 29.7511102 95.838 31.5201102"></polygon>
                                <polygon id="Fill-4" fill="url(#linearGradient-2)" points="136.838 5.768 136.838 111.268 150.285 107.871 150.285 2.299"></polygon>
                                <polygon id="Fill-5" fill="url(#linearGradient-3)" points="122.618 4 136.838 5.769 136.838 111.268 122 106.167"></polygon>
                                <polygon id="Fill-6" fill="#FFCBC8" points="135.794 0.482281578 122.618 4.03728158 136.838 5.80628158 150.285 2.33728158"></polygon>
                                <polygon id="Fill-7" fill="url(#linearGradient-2)" points="69.285 120.921 55.838 124.317 55.838 57.769 69.285 54.3"></polygon>
                                <polygon id="Fill-8" fill="url(#linearGradient-3)" points="41.618 56 55.838 57.769 55.838 124.317 41 119.217"></polygon>
                                <polygon id="Fill-9" fill="#FFCBC8" points="69.285 54.2876573 54.795 52.4326573 41.618 55.9876573 55.838 57.7566573"></polygon>
                                <polygon id="Fill-10" fill="url(#linearGradient-2)" points="14.8383 80.6437 14.8383 130.4997 28.2853 127.1037 28.2853 77.1747"></polygon>
                                <polygon id="Fill-11" fill="url(#linearGradient-3)" points="0 125.3997 14.838 130.4997 14.838 80.6437 0.618 78.8747"></polygon>
                                <polygon id="Fill-12" fill="#FFCBC8" points="0.6183 78.8751 14.8383 80.6441 28.2853 77.1751 13.7953 75.3201"></polygon>
                            </g>
                        </g>
                        <g id="Group-5" transform="translate(243.000000, 64.000000)">
                            <polygon id="Fill-1-Copy" stroke="#FFFFFF" fill-opacity="0.5" fill="#FEFEFE" opacity="0.3" points="0.275595743 5.44574548 0.275595743 109.904453 87 136.003364 87 10.7261864"></polygon>
                            <polygon id="Fill-1" fill="#FEFEFE" opacity="0.183649554" points="14.1267739 0.0463959598 14.1267739 104.505103 100.851178 129.604014 100.851178 5.32683686"></polygon>
                            <path d="M68.9493997,9.63245448 L68.9493997,130.231566" id="Path-3" stroke="#FFFFFF" opacity="0.1"></path>
                            <path d="M49.2627854,8.53442765 L49.2627854,125.087615" id="Path-4" stroke="#FFFFFF" opacity="0.1"></path>
                            <path d="M31.4101841,7.78125385 L31.4101841,119.54968" id="Path-5" stroke="#FFFFFF" opacity="0.1"></path>
                            <path d="M14.2497161,6.24375308 L14.2497161,114.041066" id="Path-6" stroke="#FFFFFF" opacity="0.1"></path>
                            <path d="M0.299990219,23.2528195 L86.867331,32.7930209" id="Path-7" stroke="#FFFFFF" opacity="0.1"></path>
                            <path d="M0.98536005,44.5945763 L86.4678373,59.1046253" id="Path-8" stroke="#FFFFFF" opacity="0.1"></path>
                            <path d="M0.241348951,65.7823998 C0.241348951,65.7823998 28.8088096,72.5970039 85.943731,86.2262122" id="Path-9" stroke="#FFFFFF" opacity="0.1"></path>
                            <path d="M0.532722756,88.8522415 L86.7060675,112.611118" id="Path-10" stroke="#FFFFFF" opacity="0.1"></path>
                            <path d="M6.2322539,96.0263253 C7.90927502,83.5572706 12.4161154,77.3227432 19.752775,77.3227432 C30.7577645,77.3227432 37.7319497,103.820971 49.9896647,100.752721 C62.2473796,97.6844705 55.5186255,23.1410037 83.943731,41.1726325" id="Path-11-Copy" stroke-opacity="0.0734827899" stroke="#000000" stroke-width="6" stroke-linecap="round"></path>
                            <path d="M3.90976555,90.6358563 C5.58678667,78.1668016 10.0936271,71.9322743 17.4302867,71.9322743 C28.4352761,71.9322743 35.4094614,98.4305021 47.6671763,95.3622518 C59.9248913,92.2940015 53.1961372,17.7505347 81.6212426,35.7821635" id="Path-11" stroke="url(#linearGradient-4)" stroke-width="6" stroke-linecap="round"></path>
                        </g>
                    </g>
                </g>
            </g>
        </g>
    </g>
</svg>