<?xml version="1.0" encoding="UTF-8"?>
<svg width="30px" height="30px" viewBox="0 0 30 30" version="1.1" xmlns="http://www.w3.org/2000/svg" xmlns:xlink="http://www.w3.org/1999/xlink">
    <!-- Generator: Sketch 51.3 (57544) - http://www.bohemiancoding.com/sketch -->
    <title>Rectangle 15 Copy 2</title>
    <desc>Created with Sketch.</desc>
    <defs></defs>
    <g id="掌单销售工具" stroke="none" stroke-width="1" fill="none" fill-rule="evenodd">
        <g id="1门店列表1-1" transform="translate(-60.000000, -173.000000)">
            <rect fill="#F1F1F1" x="0" y="0" width="750" height="1334"></rect>
            <rect id="Rectangle-19" fill="#FFFFFF" x="0" y="128" width="750" height="202"></rect>
            <rect id="Rectangle-2" stroke="#E1E1E1" fill="#F1F1F1" x="30.5" y="153.5" width="579" height="69" rx="8"></rect>
            <g id="工具-copy-3" transform="translate(60.000000, 173.000000)" fill="#999999">
                <g id="搜索-(1)" transform="translate(0.600000, 0.000000)">
                    <path d="M28.9540694,27.5824551 L23.4867855,22.1193736 C25.5879707,19.6904035 26.7394202,16.6226731 26.7394202,13.3826455 C26.7394202,9.81063068 25.3484356,6.45293675 22.822811,3.9315145 C20.2971864,1.41009224 16.9394924,0.0107029144 13.37168,0.0107029144 C9.79966511,0.0107029144 6.44197118,1.40168753 3.92054893,3.92731212 C1.3949243,6.45293675 0.00393971831,9.81063068 0.00393971831,13.3784432 C0.00393971831,16.950458 1.39492433,20.3081519 3.92054893,22.8295742 C6.44617355,25.3551988 9.80386749,26.7461834 13.37168,26.7461834 C16.321744,26.7461834 19.124725,25.7964477 21.4360288,24.0440592 L26.9663482,29.5743787 C26.9663482,29.5743787 28.9540694,27.5824551 28.9540694,27.5824551 Z M2.81532553,13.3784432 C2.81532553,7.55816015 7.55139696,2.82629109 13.3674776,2.82629109 C19.1877606,2.82629109 23.9196296,7.56236252 23.9196297,13.3784432 C23.923832,19.1987262 19.191963,23.9347976 13.37168,23.9347976 C7.55139692,23.9347976 2.81532553,19.1987262 2.81532553,13.3784432 Z" id="Shape" fill-rule="nonzero"></path>
                </g>
            </g>
        </g>
    </g>
</svg>