<?xml version="1.0" encoding="UTF-8"?>
<svg width="36px" height="39px" viewBox="0 0 36 39" version="1.1" xmlns="http://www.w3.org/2000/svg" xmlns:xlink="http://www.w3.org/1999/xlink">
    <!-- Generator: Sketch 51.3 (57544) - http://www.bohemiancoding.com/sketch -->
    <title>Rectangle 20 Copy 2</title>
    <desc>Created with Sketch.</desc>
    <defs>
        <rect id="path-1" x="0" y="0" width="750" height="98"></rect>
        <filter x="-1.1%" y="-9.2%" width="102.1%" height="116.3%" filterUnits="objectBoundingBox" id="filter-2">
            <feOffset dx="0" dy="-1" in="SourceAlpha" result="shadowOffsetOuter1"></feOffset>
            <feGaussianBlur stdDeviation="2.5" in="shadowOffsetOuter1" result="shadowBlurOuter1"></feGaussianBlur>
            <feColorMatrix values="0 0 0 0 0   0 0 0 0 0   0 0 0 0 0  0 0 0 0.1 0" type="matrix" in="shadowBlurOuter1"></feColorMatrix>
        </filter>
    </defs>
    <g id="掌单销售工具" stroke="none" stroke-width="1" fill="none" fill-rule="evenodd">
        <g id="13商圈报告1-1" transform="translate(-357.000000, -1254.000000)">
            <rect fill="#F1F1F1" x="0" y="0" width="750" height="1334"></rect>
            <g id="Group" transform="translate(0.000000, 1238.000000)">
                <g id="Rectangle-Copy">
                    <use fill="black" fill-opacity="1" filter="url(#filter-2)" xlink:href="#path-1"></use>
                    <use fill="#FFFFFF" fill-rule="evenodd" xlink:href="#path-1"></use>
                </g>
                <g id="精选-copy-7" transform="translate(355.000000, 15.000000)" fill="#EE5053">
                    <g id="订单-(2)" transform="translate(2.400000, 1.600000)">
                        <path d="M21.4040703,0.027595426 L13.1682264,0.027595426 C12.1580601,0.027595426 11.3504488,0.926376012 11.3504488,2.03731976 C11.3504488,3.15082859 12.1595383,4.05226123 13.1682264,4.05226123 L21.4550242,4.05226123 C22.414367,4.05226123 23.2231956,3.15082859 23.2231956,2.03731976 C23.223413,0.926332506 22.4155408,0.027595426 21.4040703,0.027595426 Z M30.346835,1.3689623 L26.2456078,1.3689623 C26.2873014,1.58916855 26.3113871,1.81189642 26.3113871,2.03731976 C26.3126479,3.72901671 25.0854492,5.39397593 23.6256535,5.39397593 L11.0259,5.39397593 C9.48958652,5.39397593 8.26073568,3.72901675 8.26073568,2.03731976 C8.26221385,1.81189637 8.2862996,1.58916855 8.32799316,1.3689623 L4.17720327,1.3689623 C0.840633057,1.3689623 0.0208919195,3.26056217 0.0208919195,5.9893371 L0.0208919195,33.0192731 C0.0208919195,35.950603 1.19474552,37.5912156 4.42914702,37.5912156 L30.0946304,37.5912156 C33.3290753,37.5912156 34.901387,36.3048894 34.901387,33.0207513 L34.901387,5.98929359 C34.9016479,3.26077953 33.429592,1.36917966 30.3468785,1.36917966 L30.3468785,1.3689623 L30.346835,1.3689623 Z M26.1331787,28.0568286 L8.29838594,28.0568286 C7.6410279,28.0568286 6.98480028,27.2504347 6.98480028,26.5920332 C6.98480028,25.9358491 7.54020696,25.3737471 8.19760846,25.3737471 L25.9814908,25.3737471 C26.6386749,25.3737471 27.1940381,25.8846777 27.2439051,26.5920332 C27.2439051,27.250652 26.7903629,28.0568286 26.1331787,28.0568286 Z M26.2056533,20.8998866 L8.37064315,20.8998866 C7.71319819,20.8998866 7.29461069,20.1930528 7.29461069,19.5341731 C7.29461069,18.8755108 7.85027823,18.216805 8.50741887,18.216805 L26.2913012,18.216805 C26.9487461,18.216805 27.5041094,18.8270785 27.5537155,19.5341731 C27.553759,20.1928355 26.8616201,20.8998866 26.2056533,20.8998866 Z M26.2056533,13.5493892 L8.37064315,13.5493892 C7.71319819,13.5493892 7.29461069,12.8422945 7.29461069,12.1836757 C7.29461069,11.5249699 7.85027823,10.8663076 8.50741887,10.8663076 L26.2913012,10.8663076 C26.9487461,10.8663076 27.5041094,11.4768419 27.5537155,12.1836757 C27.553759,12.8422945 26.8616201,13.5493892 26.2056533,13.5493892 Z" id="Shape" fill-rule="nonzero"></path>
                    </g>
                </g>
            </g>
        </g>
    </g>
</svg>