<?xml version="1.0" encoding="UTF-8"?>
<svg width="40px" height="37px" viewBox="0 0 40 37" version="1.1" xmlns="http://www.w3.org/2000/svg" xmlns:xlink="http://www.w3.org/1999/xlink">
    <!-- Generator: Sketch 51.3 (57544) - http://www.bohemiancoding.com/sketch -->
    <title>Rectangle 20 Copy</title>
    <desc>Created with Sketch.</desc>
    <defs>
        <rect id="path-1" x="0" y="0" width="750" height="98"></rect>
        <filter x="-1.1%" y="-9.2%" width="102.1%" height="116.3%" filterUnits="objectBoundingBox" id="filter-2">
            <feOffset dx="0" dy="-1" in="SourceAlpha" result="shadowOffsetOuter1"></feOffset>
            <feGaussianBlur stdDeviation="2.5" in="shadowOffsetOuter1" result="shadowBlurOuter1"></feGaussianBlur>
            <feColorMatrix values="0 0 0 0 0   0 0 0 0 0   0 0 0 0 0  0 0 0 0.1 0" type="matrix" in="shadowBlurOuter1"></feColorMatrix>
        </filter>
    </defs>
    <g id="掌单销售工具" stroke="none" stroke-width="1" fill="none" fill-rule="evenodd">
        <g id="3我的1-1" transform="translate(-105.000000, -1254.000000)">
            <rect fill="#FFFFFF" x="0" y="0" width="750" height="1334"></rect>
            <g id="Group-4" transform="translate(0.000000, 1238.000000)">
                <g id="Rectangle-Copy">
                    <use fill="black" fill-opacity="1" filter="url(#filter-2)" xlink:href="#path-1"></use>
                    <use fill="#FFFFFF" fill-rule="evenodd" xlink:href="#path-1"></use>
                </g>
                <g id="精选-copy" transform="translate(105.000000, 15.000000)" fill="#DDDDDD">
                    <g id="商店" transform="translate(0.000000, 1.600000)">
                        <path d="M39.6122575,11.5508393 C39.6094594,11.5292939 39.6051823,11.5090676 39.6008652,11.4918793 C39.583437,11.4080561 39.5603327,11.3272709 39.5273151,11.2496035 L36.147047,2.83486871 C35.5630429,1.09596773 33.946299,0.0156601562 31.9131175,0.0156601562 L8.1862843,0.0156601562 C6.19331555,0.0156601562 4.64460555,1.07566148 4.08350598,2.75128539 L0.449449883,11.337464 C0.432301523,11.3881096 0.413354375,11.4628989 0.397525078,11.539447 C0.133663984,12.3498576 0.00103390625,13.1818535 0.00103390625,14.0169273 C0.00387199219,16.9544956 1.61617883,19.6366771 4.20478375,21.0139433 C5.27046121,21.5849961 6.52648965,21.8734006 7.93673348,21.8734006 L7.94113051,21.8734006 C10.3077259,21.8677245 12.4995999,20.8279894 13.9937069,19.0482761 C15.4803389,20.8118803 17.6550645,21.8458593 20.0172229,21.8604494 C22.360714,21.8430212 24.5281645,20.8048851 26.0090805,19.0411609 C27.5031075,20.8207144 29.6978595,21.8576113 32.0758472,21.8576113 C33.5152712,21.8490171 34.7928051,21.5475416 35.8686357,20.9562625 C38.418267,19.5646859 40.0001545,16.8924577 39.9988354,13.9866279 C40.0002345,13.150195 39.8633672,12.313802 39.6122575,11.5508393 Z M31.2123127,12.9570059 L8.13719758,12.9570059 C7.34129719,12.9570059 6.69521523,12.310924 6.69521523,11.5148237 C6.69521523,10.7189634 7.34129719,10.0728814 8.13719758,10.0728814 L31.2123127,10.0728814 C32.009692,10.0728814 32.6541751,10.7189634 32.6541751,11.5148237 C32.6541751,12.310924 32.009692,12.9570059 31.2123127,12.9570059 Z" id="Shape" fill-rule="nonzero"></path>
                        <path d="M37.0093023,24.4951431 C37.0093023,23.6976438 36.3648992,23.0532007 35.5671601,23.0532007 C35.4186607,23.0532007 35.2845916,23.0949724 35.1504426,23.1381432 C34.0818471,23.5608166 32.7146941,23.7885422 31.683753,23.7323803 C29.410974,23.6111825 27.6789483,23.1583295 26.0105595,21.7378925 C24.3651151,23.1411411 22.2654187,23.9398796 20.0301342,23.9601858 C17.7631912,23.9456757 15.6519026,23.3774609 13.9978641,21.9715741 C12.3336724,23.3904921 10.2095925,24.0811438 7.94684664,24.0811438 L7.9382125,24.0811438 C6.5567891,24.0811438 5.77807707,23.8188417 4.52044973,23.3543566 C4.48591313,23.3372082 4.44989758,23.3283742 4.41376207,23.3155829 C4.35324309,23.2925185 4.30703441,23.2766493 4.24499648,23.253545 C4.24499648,23.253545 4.03745719,23.2175294 3.92349445,23.2175294 L3.92061641,23.2175294 C3.12451617,23.2175294 2.47999316,23.8648505 2.48131227,24.6624697 L2.49142539,32.39055 C2.49142539,34.4239714 4.14838199,36.0780099 6.18600047,36.0780099 L33.3233214,36.0605817 C35.3580218,36.0549056 37.0136593,34.39639 37.0136593,32.3632086 L37.0093023,24.4951431 Z" id="Shape" fill-rule="nonzero"></path>
                    </g>
                </g>
            </g>
        </g>
    </g>
</svg>