<?xml version="1.0" encoding="UTF-8"?>
<svg width="40px" height="37px" viewBox="0 0 40 37" version="1.1" xmlns="http://www.w3.org/2000/svg" xmlns:xlink="http://www.w3.org/1999/xlink">
    <!-- Generator: Sketch 51.3 (57544) - http://www.bohemiancoding.com/sketch -->
    <title>Rectangle 20 Copy</title>
    <desc>Created with Sketch.</desc>
    <defs>
        <rect id="path-1" x="0" y="0" width="750" height="98"></rect>
        <filter x="-1.1%" y="-9.2%" width="102.1%" height="116.3%" filterUnits="objectBoundingBox" id="filter-2">
            <feOffset dx="0" dy="-1" in="SourceAlpha" result="shadowOffsetOuter1"></feOffset>
            <feGaussianBlur stdDeviation="2.5" in="shadowOffsetOuter1" result="shadowBlurOuter1"></feGaussianBlur>
            <feColorMatrix values="0 0 0 0 0   0 0 0 0 0   0 0 0 0 0  0 0 0 0.1 0" type="matrix" in="shadowBlurOuter1"></feColorMatrix>
        </filter>
    </defs>
    <g id="掌单销售工具" stroke="none" stroke-width="1" fill="none" fill-rule="evenodd">
        <g id="1门店列表1-1" transform="translate(-105.000000, -1254.000000)">
            <rect fill="#F1F1F1" x="0" y="0" width="750" height="1334"></rect>
            <g id="Group" transform="translate(0.000000, 1238.000000)">
                <g id="Rectangle-Copy">
                    <use fill="black" fill-opacity="1" filter="url(#filter-2)" xlink:href="#path-1"></use>
                    <use fill="#FFFFFF" fill-rule="evenodd" xlink:href="#path-1"></use>
                </g>
                <g id="精选-copy-6" transform="translate(105.000000, 15.000000)" fill="#EE5053">
                    <g id="商店" transform="translate(0.000000, 1.600000)">
                        <path d="M39.6122575,11.5508393 C39.6094594,11.5292939 39.6051823,11.5090676 39.6008652,11.4918793 C39.583437,11.4080561 39.5603327,11.3272709 39.5273151,11.2496035 L36.147047,2.83486871 C35.5630429,1.09596773 33.946299,0.0156601562 31.9131175,0.0156601562 L8.1862843,0.0156601562 C6.19331555,0.0156601562 4.64460555,1.07566148 4.08350598,2.75128539 L0.449449883,11.337464 C0.432301523,11.3881096 0.413354375,11.4628989 0.397525078,11.539447 C0.133663984,12.3498576 0.00103390625,13.1818535 0.00103390625,14.0169273 C0.00387199219,16.9544956 1.61617883,19.6366771 4.20478375,21.0139433 C5.27046121,21.5849961 6.52648965,21.8734006 7.93673348,21.8734006 L7.94113051,21.8734006 C10.3077259,21.8677245 12.4995999,20.8279894 13.9937069,19.0482761 C15.4803389,20.8118803 17.6550645,21.8458593 20.0172229,21.8604494 C22.360714,21.8430212 24.5281645,20.8048851 26.0090805,19.0411609 C27.5031075,20.8207144 29.6978595,21.8576113 32.0758472,21.8576113 C33.5152712,21.8490171 34.7928051,21.5475416 35.8686357,20.9562625 C38.418267,19.5646859 40.0001545,16.8924577 39.9988354,13.9866279 C40.0002345,13.150195 39.8633672,12.313802 39.6122575,11.5508393 Z M31.2123127,12.9570059 L8.13719758,12.9570059 C7.34129719,12.9570059 6.69521523,12.310924 6.69521523,11.5148237 C6.69521523,10.7189634 7.34129719,10.0728814 8.13719758,10.0728814 L31.2123127,10.0728814 C32.009692,10.0728814 32.6541751,10.7189634 32.6541751,11.5148237 C32.6541751,12.310924 32.009692,12.9570059 31.2123127,12.9570059 Z M35.2493005,25.6761234 L35.2532133,32.7419669 C35.2532133,34.5678467 33.7663834,36.0572613 31.9391394,36.0623587 L7.56871909,36.0780099 C5.73885465,36.0780099 4.25084008,34.5926159 4.25084008,32.7665206 L4.24175808,25.8263895 C4.24057348,25.110095 4.81938141,24.5287742 5.53431187,24.5287742 L5.53689647,24.5287742 C5.63923965,24.5287742 5.8256184,24.5611177 5.8256184,24.5611177 C5.88133099,24.5818663 5.92282826,24.5961175 5.97717678,24.6168302 C6.00962793,24.6283174 6.04197136,24.6362507 6.07298664,24.6516506 C7.20238726,25.0687771 7.9017024,25.3043352 9.14227692,25.3043352 L9.15003073,25.3043352 C11.1820687,25.3043352 13.0895791,24.6841017 14.584091,23.4098556 C16.0694851,24.6723992 17.9655082,25.1826792 20.0013155,25.1957099 C22.008692,25.1774741 23.894305,24.4601744 25.3719811,23.2 C26.8702623,24.4756103 28.425692,24.8822907 30.4667402,24.9911313 C31.3925673,25.041567 32.6203264,24.8370601 33.5799688,24.4574821 C33.70044,24.4187131 33.8208396,24.3812004 33.954198,24.3812004 C34.6706003,24.3812004 35.2493005,24.9599365 35.2493005,25.6761234 Z" id="Combined-Shape" fill-rule="nonzero"></path>
                    </g>
                </g>
            </g>
        </g>
    </g>
</svg>